<svg xmlns="http://www.w3.org/2000/svg" xmlns:xlink="http://www.w3.org/1999/xlink" width="440" height="490" viewBox="0 0 440 490" role="img" aria-labelledby="title desc">
<title id="title">Matthew Schramm — AI engineer, product and platform</title>
<desc id="desc">Three interlocking paths represent context, agents, and robot data. Cape Town, South Africa.</desc>
<!-- Original geometric artwork. Name outlined from Manrope, SIL Open Font License; see OFL-Manrope.txt. -->
<style>
text {font-family:Arial,Helvetica,sans-serif;fill:#f4f7ff}
.signal {animation:travel 2.4s linear 2;}
@keyframes travel {from {stroke-dashoffset:0} to {stroke-dashoffset:-100}}
@media (prefers-reduced-motion:reduce) {.signal {animation:none;}}
</style>
<defs><clipPath id="frame"><rect width="440" height="490"/></clipPath></defs>
<g clip-path="url(#frame)"><rect width="440" height="490" fill="#1638c9"/><g transform="translate(64 238) scale(.58)"><g fill="none" stroke-linecap="round"><path d="M -55 50 H 35 C 145 50 145 300 250 300 S 365 50 455 50 H 510" stroke="#89e5c6" stroke-width="26"/><path class="signal" d="M -55 50 H 35 C 145 50 145 300 250 300 S 365 50 455 50 H 510" pathLength="100" stroke="#1638c9" stroke-width="4" stroke-dasharray="2 98"/><path d="M -55 175 H 35 C 145 175 145 50 250 50 S 365 300 455 300 H 510" stroke="#f4f7ff" stroke-width="26"/><path class="signal" d="M -55 175 H 35 C 145 175 145 50 250 50 S 365 300 455 300 H 510" pathLength="100" stroke="#1638c9" stroke-width="4" stroke-dasharray="2 98"/><path d="M -55 300 H 35 C 145 300 145 175 250 175 S 365 175 455 175 H 510" stroke="#ffcc66" stroke-width="26"/><path class="signal" d="M -55 300 H 35 C 145 300 145 175 250 175 S 365 175 455 175 H 510" pathLength="100" stroke="#1638c9" stroke-width="4" stroke-dasharray="2 98"/></g></g><g stroke="#f4f7ff" stroke-width="0.012" stroke-linejoin="round">
<defs>
<path id="afont_1_81" d="M.070007327 0V.7200012H.11000061L.41600038 .050994874 .71899417 .7200012H.7610016V.0010070801H.71899417V.6190033L.43899537 0H.3919983L.11199951 .6190033V0H.070007327Z"/>
<path id="afont_1_168" d="M.227005-.01499939C.18500264-.01499939 .15016683-.0076649987 .12249756 .007003784 .094828289 .021672568 .074157718 .04100545 .06048584 .06500244 .04682414 .08899943 .039993287 .115000408 .039993287 .14300537 .039993287 .17467244 .046910604 .20092266 .06074524 .22175598 .07457987 .24258931 .09266154 .2590027 .114990238 .2709961 .1373291 .28299967 .16133118 .29166667 .18699646 .29699708 .21832784 .30333457 .25191245 .30891929 .28775025 .31375123 .32358805 .31858317 .3566691 .32266236 .3869934 .32598878 .41732789 .32932536 .43999736 .33199565 .45500184 .33399964L.44000245 .32400514C.44167076 .3876648 .43008424 .43507896 .40524293 .46624757 .38041178 .49741618 .33666484 .5130005 .27400209 .5130005 .22866313 .5130005 .19224549 .5029144 .16474915 .4827423 .13725281 .46258036 .118001308 .43166606 .10699463 .3899994L.06100464 .4019928C.07299805 .45200096 .097579959 .4900004 .13475037 .5159912 .17192078 .5419922 .21900432 .5549927 .27600099 .5549927 .32599894 .5549927 .36766563 .54482528 .40100099 .52449038 .43433634 .50416567 .45700074 .4766693 .46899415 .44200135 .47366334 .42866517 .47699485 .41249595 .47898866 .39349366 .48099265 .37450157 .48199464 .3560028 .48199464 .33799745V0H.44299317V.147995L.46299745 .14700318C.44866435 .09567261 .42016603 .055836996 .37750245 .027496338 .33483888-.00083414718 .28467307-.01499939 .227005-.01499939M.2250061 .026992798C.2639974 .026992798 .29841105 .033991498 .32824708 .04798889 .3580831 .06199646 .38224793 .08224996 .40074159 .10874939 .4192454 .13524883 .43099977 .16699727 .43600465 .20399475 .43866984 .22266133 .44000245 .24266052 .44000245 .2639923 .44000245 .28533427 .44000245 .30066935 .44000245 .30999757L.46200563 .29299928C.44433595 .29133097 .41991679 .28907777 .38874818 .28623963 .35757957 .28341166 .32466126 .27974449 .2899933 .27523805 .25533549 .2707418 .2240041 .2649943 .19599915 .2579956 .17966207 .2539978 .16282654 .2476654 .14549256 .23899842 .12816875 .23033142 .113586429 .21816509 .101745609 .20249939 .089914958 .1868337 .083999637 .16666667 .083999637 .14199829 .083999637 .12466431 .08833313 .107162479 .09700012 .0894928 .105667117 .07183329 .12024943 .05700175 .14074707 .04499817 .1612447 .032994588 .18933106 .026992798 .2250061 .026992798Z"/>
<path id="afont_1_294" d="M.34899903 0C.32200114-.0060017907 .29533387-.008249919 .2689972-.0067443849 .2426707-.0052490236 .21917217 .001083374 .19850159 .012252808 .17783101 .023422242 .16232808 .040339155 .1519928 .06300354 .14399719 .08066305 .13949585 .098576869 .13848877 .116744998 .13749187 .13491313 .13699341 .15566509 .13699341 .17900086V.69000247H.17900086V.17900086C.17900086 .15566509 .17925008 .13683065 .17974854 .12249756 .180247 .10816447 .18366497 .09466553 .19000244 .08200073 .20199585 .058003744 .22099304 .043253583 .24699402 .037750246 .272995 .032246908 .30699668 .032994588 .34899903 .039993287V0M.009994507 .4980011V.5399933H.34899903V.4980011H.009994507Z"/>
<path id="afont_1_226" d="M.47099305 0V.28599549C.47099305 .32466126 .46707664 .358078 .45924378 .38624574 .45141093 .41441346 .4398295 .43774415 .4244995 .4562378 .40916953 .4747416 .39058433 .48849488 .3687439 .49749757 .34691368 .50650027 .32200114 .5110016 .29400636 .5110016 .26100669 .5110016 .23292034 .505249 .20974732 .4937439 .18658448 .48224894 .1678365 .46650187 .15350342 .4465027 .13917034 .4265035 .12866719 .40350343 .12199402 .37750245 .11533102 .35150147 .11199951 .32400004 .11199951 .29499818L.07299805 .29400636C.07299805 .3556722 .08316549 .40542094 .103500369 .44325257 .12383524 .4810842 .15075176 .508667 .18424988 .526001 .217748 .54333499 .2543335 .55200198 .29400636 .55200198 .32133994 .55200198 .3464203 .54816696 .36924745 .5404968 .39208476 .5328369 .41241966 .52175399 .43025209 .5072479 .4480845 .49275209 .46316529 .475001 .47549439 .45399476 .48783366 .43299867 .49716697 .40908305 .50349429 .38224793 .5098317 .3554128 .5130005 .32599894 .5130005 .29400636V0H.47099305M.070007327 0V.7200012H.10899353V.29499818H.11199951V0H.070007327Z"/>
<path id="afont_1_202" d="M.28700257-.01499939C.23599752-.01499939 .19207764-.0034993489 .15524292 .019500733 .11841837 .042500814 .09000143 .07533264 .069992069 .117996219 .049992879 .16066997 .039993287 .21133931 .039993287 .27000428 .039993287 .3290049 .0499115 .37983705 .069747928 .4225006 .08958435 .46516419 .11791992 .49790956 .15475464 .5207367 .19158936 .54357406 .235672 .5549927 .28700257 .5549927 .33866883 .5549927 .38283286 .54332479 .41949464 .519989 .4561666 .49666343 .48425294 .4628347 .50375369 .4185028 .5232544 .37417094 .53300479 .32066856 .53300479 .2579956H.4880066V.27200318C.4860026 .3496704 .46774803 .4092509 .4332428 .45074464 .39874778 .49224855 .350001 .5130005 .28700257 .5130005 .22299703 .5130005 .17332967 .4917501 .13800049 .44924928 .1026713 .40674845 .085006717 .34700013 .085006717 .27000428 .085006717 .19299825 .1026713 .13324483 .13800049 .09074402 .17332967 .048243207 .22299703 .026992798 .28700257 .026992798 .33167015 .026992798 .37083436 .037490846 .40449525 .05848694 .4381663 .0794932 .46500144 .10966492 .4850006 .14900208L.5200043 .1289978C.4980011 .08299764 .4668325 .047495527 .4264984 .022491456 .38616435-.0025024415 .33966575-.01499939 .28700257-.01499939M.06700134 .2579956V.30000306H.5070038V.2579956H.06700134Z"/>
<path id="afont_1_319" d="M.18499756 0 .020004273 .5399933H.06399536L.20700073 .072006229 .3500061 .5399933H.3939972L.53700259 .072006229 .68099978 .5399933H.723999L.55900576 0H.5149994L.37199403 .46899415 .2290039 0H.18499756Z"/>
</defs>
<use data-text="M" href="#afont_1_81" transform="matrix(58,0,0,-58,28,80)" fill="#f4f7ff"/>
<use data-text="a" href="#afont_1_168" transform="matrix(58,0,0,-58,76.198,80)" fill="#f4f7ff"/>
<use data-text="t" href="#afont_1_294" transform="matrix(58,0,0,-58,107.634,80)" fill="#f4f7ff"/>
<use data-text="t" href="#afont_1_294" transform="matrix(58,0,0,-58,129.616,80)" fill="#f4f7ff"/>
<use data-text="h" href="#afont_1_226" transform="matrix(58,0,0,-58,151.59799,80)" fill="#f4f7ff"/>
<use data-text="e" href="#afont_1_202" transform="matrix(58,0,0,-58,184.832,80)" fill="#f4f7ff"/>
<use data-text="w" href="#afont_1_319" transform="matrix(58,0,0,-58,218.06601,80)" fill="#f4f7ff"/>
</g><g stroke="#f4f7ff" stroke-width="0.012" stroke-linejoin="round">
<defs>
<path id="bfont_1_118" d="M.30900575-.01499939C.2603302-.01499939 .21657817-.0070851647 .17774964 .008743286 .1389211 .02458191 .10675558 .047002157 .08125305 .07600403 .05575053 .1050059 .03866577 .13933818 .02999878 .17900086L.072006229 .18699646C.085006717 .13766988 .1126709 .09866842 .15499878 .069992069 .19733684 .041325887 .24867249 .026992798 .30900575 .026992798 .35099793 .026992798 .3876597 .03366089 .4189911 .04699707 .45033265 .060333253 .4746704 .079081218 .4920044 .10324097 .5093384 .12741089 .5180054 .15566509 .5180054 .18800354 .5180054 .21233623 .513504 .23266602 .50450137 .24899292 .49549867 .26533 .48408 .2785797 .47024537 .28874208 .45641075 .29891459 .44199119 .30700175 .4269867 .31300355 .4119924 .31900535 .3986613 .32366944 .3869934 .32699586L.20700073 .3809967C.18099976 .38866679 .15857952 .3980001 .13973999 .40899659 .120910648 .42000328 .10549418 .43250529 .0934906 .4465027 .08149719 .4605001 .07258097 .47583009 .06674194 .49249269 .060913087 .50916549 .057998659 .527003 .057998659 .54600527 .057998659 .58266708 .06791178 .61524459 .08773804 .6437378 .10757446 .6722412 .13515727 .694575 .17048645 .71073916 .2058258 .72691348 .2466634 .7350006 .29299928 .7350006 .33999635 .7350006 .38216148 .7263336 .41949464 .70899966 .4568278 .69166567 .4874115 .6672465 .5112457 .6357422 .53507998 .60424807 .549998 .56733199 .55599978 .5249939L.51400759 .5169983C.5093384 .55200198 .49700419 .5827535 .477005 .6092529 .45700584 .6357524 .4311727 .65633139 .39950563 .67099 .36783854 .68565878 .33233644 .69299319 .29299928 .69299319 .2553304 .69299319 .22224427 .6864929 .19374085 .67349246 .1652476 .66050216 .14300029 .6430054 .1269989 .6210022 .11099752 .598999 .102996829 .5743306 .102996829 .5469971 .102996829 .5183309 .11074829 .4954122 .12625122 .47824098 .14175415 .46107994 .16066997 .4477488 .18299866 .43824769 .20533753 .42874656 .22666931 .4209951 .24699402 .4149933L.3959961 .36999513C.4086609 .366333 .42415873 .36091615 .44248963 .3537445 .4608307 .34658305 .47891746 .33633424 .49674989 .32299806 .51458236 .30966188 .5294139 .29207865 .5412445 .2702484 .5530853 .24841817 .55900576 .22100322 .55900576 .18800354 .55900576 .15699768 .5531718 .12899272 .5415039 .10398865 .529836 .07899475 .5130005 .057662965 .4909973 .039993287 .46899415 .02233378 .44265748 .008753459 .4119873-.00074768069 .3813273-.01024882 .34700013-.01499939 .30900575-.01499939Z"/>
<path id="bfont_1_192" d="M.28700257-.01499939C.23333232-.01499939 .18832906-.0030008953 .1519928 .020996094 .11566671 .045003255 .08817037 .078420009 .069503787 .12124634 .0508372 .16408284 .041000368 .21366883 .039993287 .27000428 .041000368 .32767234 .05091858 .37783814 .069747928 .4205017 .08858744 .46316529 .11617025 .49624635 .15249634 .5197449 .1888326 .5432434 .23366802 .5549927 .28700257 .5549927 .33700053 .5549927 .38158164 .54307559 .42074586 .51924136 .45992027 .49541728 .4876709 .4626719 .5039978 .42100526L.46400453 .40400697C.44900004 .43866477 .42591349 .46549479 .39474488 .48449708 .36358644 .5034993 .32767234 .5130005 .28700257 .5130005 .24166362 .5130005 .2041626 .50275167 .17449951 .48225404 .14483643 .46175639 .122670497 .43325297 .10800171 .39674378 .093332927 .36024476 .08566793 .31799827 .085006717 .27000428 .086003627 .19667053 .10333252 .13783264 .13699341 .0934906 .17066448 .049158735 .22066753 .026992798 .28700257 .026992798 .32666526 .026992798 .36183167 .036158246 .39250184 .054489137 .423172 .0728302 .44667054 .09966532 .46299745 .1349945L.5039978 .117004398C.4816691 .07366943 .4521688 .04083252 .41549684 .018493653 .37883506-.0038350423 .33600364-.01499939 .28700257-.01499939Z"/>
<path id="bfont_1_226" d="M.47099305 0V.28599549C.47099305 .32466126 .46707664 .358078 .45924378 .38624574 .45141093 .41441346 .4398295 .43774415 .4244995 .4562378 .40916953 .4747416 .39058433 .48849488 .3687439 .49749757 .34691368 .50650027 .32200114 .5110016 .29400636 .5110016 .26100669 .5110016 .23292034 .505249 .20974732 .4937439 .18658448 .48224894 .1678365 .46650187 .15350342 .4465027 .13917034 .4265035 .12866719 .40350343 .12199402 .37750245 .11533102 .35150147 .11199951 .32400004 .11199951 .29499818L.07299805 .29400636C.07299805 .3556722 .08316549 .40542094 .103500369 .44325257 .12383524 .4810842 .15075176 .508667 .18424988 .526001 .217748 .54333499 .2543335 .55200198 .29400636 .55200198 .32133994 .55200198 .3464203 .54816696 .36924745 .5404968 .39208476 .5328369 .41241966 .52175399 .43025209 .5072479 .4480845 .49275209 .46316529 .475001 .47549439 .45399476 .48783366 .43299867 .49716697 .40908305 .50349429 .38224793 .5098317 .3554128 .5130005 .32599894 .5130005 .29400636V0H.47099305M.070007327 0V.7200012H.10899353V.29499818H.11199951V0H.070007327Z"/>
<path id="bfont_1_283" d="M.070007327 0V.5399933H.10899353V.41099549L.09599304 .42799378C.10166931 .44266258 .10883585 .45632936 .117492679 .46899415 .12615967 .4816691 .1346639 .4920044 .14300537 .5 .15766399 .51433309 .17507427 .5252482 .1952362 .53274539 .21540833 .5402527 .23566182 .5445862 .2559967 .54574587 .27633158 .5469157 .29433189 .54499819 .30999757 .5399933V.5C.28766886 .5050049 .26400248 .5059204 .23899842 .5027466 .21400452 .49958293 .19067383 .4880015 .16900635 .46800233 .15000408 .45033265 .1365865 .42999778 .12875366 .40699769 .120920818 .3839976 .11617025 .36024476 .11450195 .33573915 .11283366 .31124369 .11199951 .28799949 .11199951 .26600648V0H.070007327Z"/>
<path id="bfont_1_168" d="M.227005-.01499939C.18500264-.01499939 .15016683-.0076649987 .12249756 .007003784 .094828289 .021672568 .074157718 .04100545 .06048584 .06500244 .04682414 .08899943 .039993287 .115000408 .039993287 .14300537 .039993287 .17467244 .046910604 .20092266 .06074524 .22175598 .07457987 .24258931 .09266154 .2590027 .114990238 .2709961 .1373291 .28299967 .16133118 .29166667 .18699646 .29699708 .21832784 .30333457 .25191245 .30891929 .28775025 .31375123 .32358805 .31858317 .3566691 .32266236 .3869934 .32598878 .41732789 .32932536 .43999736 .33199565 .45500184 .33399964L.44000245 .32400514C.44167076 .3876648 .43008424 .43507896 .40524293 .46624757 .38041178 .49741618 .33666484 .5130005 .27400209 .5130005 .22866313 .5130005 .19224549 .5029144 .16474915 .4827423 .13725281 .46258036 .118001308 .43166606 .10699463 .3899994L.06100464 .4019928C.07299805 .45200096 .097579959 .4900004 .13475037 .5159912 .17192078 .5419922 .21900432 .5549927 .27600099 .5549927 .32599894 .5549927 .36766563 .54482528 .40100099 .52449038 .43433634 .50416567 .45700074 .4766693 .46899415 .44200135 .47366334 .42866517 .47699485 .41249595 .47898866 .39349366 .48099265 .37450157 .48199464 .3560028 .48199464 .33799745V0H.44299317V.147995L.46299745 .14700318C.44866435 .09567261 .42016603 .055836996 .37750245 .027496338 .33483888-.00083414718 .28467307-.01499939 .227005-.01499939M.2250061 .026992798C.2639974 .026992798 .29841105 .033991498 .32824708 .04798889 .3580831 .06199646 .38224793 .08224996 .40074159 .10874939 .4192454 .13524883 .43099977 .16699727 .43600465 .20399475 .43866984 .22266133 .44000245 .24266052 .44000245 .2639923 .44000245 .28533427 .44000245 .30066935 .44000245 .30999757L.46200563 .29299928C.44433595 .29133097 .41991679 .28907777 .38874818 .28623963 .35757957 .28341166 .32466126 .27974449 .2899933 .27523805 .25533549 .2707418 .2240041 .2649943 .19599915 .2579956 .17966207 .2539978 .16282654 .2476654 .14549256 .23899842 .12816875 .23033142 .113586429 .21816509 .101745609 .20249939 .089914958 .1868337 .083999637 .16666667 .083999637 .14199829 .083999637 .12466431 .08833313 .107162479 .09700012 .0894928 .105667117 .07183329 .12024943 .05700175 .14074707 .04499817 .1612447 .032994588 .18933106 .026992798 .2250061 .026992798Z"/>
<path id="bfont_1_250" d="M.71099856 0 .7120056 .37199403C.7120056 .41699729 .6988373 .45241294 .6725006 .47824098 .64616397 .50407919 .6136627 .5169983 .57499697 .5169983 .55366519 .5169983 .53207907 .5121663 .51023867 .50250247 .48840843 .49283854 .4700775 .47650657 .45524598 .45350648 .44041444 .43050639 .43299867 .39900209 .43299867 .35899354H.3959961C.3943278 .39866639 .40124513 .4331665 .41674806 .4624939 .43225099 .49183146 .45399986 .51458236 .48199464 .53074648 .5099996 .5469106 .5420024 .5549927 .5780029 .5549927 .6289978 .5549927 .6710765 .5389913 .7042389 .5069885 .7374115 .47499595 .7539978 .43099977 .7539978 .375L.753006 0H.71099856M.070007327 0V.5399933H.10899353V.42999269H.11199951V0H.070007327M.39100648 0 .3919983 .3650055C.3919983 .41166688 .3790792 .44866435 .35324098 .47599793 .32741294 .5033315 .29400126 .5169983 .25300599 .5169983 .21100362 .5169983 .17700196 .5026652 .15100098 .47399903 .125 .44533286 .11199951 .40699769 .11199951 .35899354L.07499695 .375C.07499695 .40966798 .082829799 .44058229 .09849548 .46774293 .11416117 .49491374 .13574219 .51624557 .16323853 .5317383 .19074504 .5472412 .22233074 .5549927 .2579956 .5549927 .28833009 .5549927 .3168284 .5485738 .3434906 .5357361 .37016297 .5229085 .39174906 .5029958 .4082489 .47599793 .42474876 .44900004 .43299867 .41433207 .43299867 .37199403L.43200685 0H.39100648Z"/>
</defs>
<use data-text="S" href="#bfont_1_118" transform="matrix(58,0,0,-58,28,146)" fill="#f4f7ff"/>
<use data-text="c" href="#bfont_1_192" transform="matrix(58,0,0,-58,62.162004,146)" fill="#f4f7ff"/>
<use data-text="h" href="#bfont_1_226" transform="matrix(58,0,0,-58,93.424,146)" fill="#f4f7ff"/>
<use data-text="r" href="#bfont_1_283" transform="matrix(58,0,0,-58,126.658008,146)" fill="#f4f7ff"/>
<use data-text="a" href="#bfont_1_168" transform="matrix(58,0,0,-58,146.08802,146)" fill="#f4f7ff"/>
<use data-text="m" href="#bfont_1_250" transform="matrix(58,0,0,-58,177.52402,146)" fill="#f4f7ff"/>
<use data-text="m" href="#bfont_1_250" transform="matrix(58,0,0,-58,224.73603,146)" fill="#f4f7ff"/>
</g><text x="30" y="187" font-size="20">AI engineer · Product &amp; platform</text><text x="30" y="217" font-size="16" fill="#c8d8ff">Cape Town, South Africa</text><text x="30" y="465" font-size="16">Context · Agents · Robot data</text></g>
</svg>